<mxfile host="app.diagrams.net" modified="2024-06-21T06:08:23.239Z" agent="Mozilla/5.0 (Windows NT 10.0; Win64; x64) AppleWebKit/537.36 (KHTML, like Gecko) Chrome/128.0.0.0 Safari/537.36" etag="lv5xFwkUzunYBWt6Djjn" version="24.6.0" type="github">
  <diagram id="prtHgNgQTEPvFCAcTncT" name="Page-1">
    <mxGraphModel dx="1195" dy="615" grid="1" gridSize="10" guides="1" tooltips="1" connect="1" arrows="1" fold="1" page="1" pageScale="1" pageWidth="827" pageHeight="1169" math="0" shadow="0">
      <root>
        <mxCell id="0" />
        <mxCell id="1" parent="0" />
        <mxCell id="B_HVdMrwZ7ZetZHbVxnH-24" style="edgeStyle=orthogonalEdgeStyle;rounded=0;orthogonalLoop=1;jettySize=auto;html=1;exitX=0.5;exitY=1;exitDx=0;exitDy=0;" edge="1" parent="1" source="B_HVdMrwZ7ZetZHbVxnH-5">
          <mxGeometry relative="1" as="geometry">
            <mxPoint x="450" y="160" as="targetPoint" />
          </mxGeometry>
        </mxCell>
        <mxCell id="B_HVdMrwZ7ZetZHbVxnH-5" value="客户端" style="ellipse;whiteSpace=wrap;html=1;fillColor=#f8cecc;strokeColor=#b85450;" vertex="1" parent="1">
          <mxGeometry x="390" y="30" width="120" height="80" as="geometry" />
        </mxCell>
        <mxCell id="B_HVdMrwZ7ZetZHbVxnH-7" value="" style="whiteSpace=wrap;html=1;aspect=fixed;fillColor=#fff2cc;strokeColor=#d6b656;" vertex="1" parent="1">
          <mxGeometry x="270" y="170" width="350" height="350" as="geometry" />
        </mxCell>
        <mxCell id="B_HVdMrwZ7ZetZHbVxnH-8" value="连接/线程处理" style="rounded=0;whiteSpace=wrap;html=1;fillColor=#ffe6cc;strokeColor=#d79b00;" vertex="1" parent="1">
          <mxGeometry x="350" y="220" width="200" height="40" as="geometry" />
        </mxCell>
        <mxCell id="B_HVdMrwZ7ZetZHbVxnH-11" value="查询缓存" style="rounded=0;whiteSpace=wrap;html=1;fillColor=#dae8fc;strokeColor=#6c8ebf;" vertex="1" parent="1">
          <mxGeometry x="330" y="320" width="96" height="50" as="geometry" />
        </mxCell>
        <mxCell id="B_HVdMrwZ7ZetZHbVxnH-18" value="" style="edgeStyle=orthogonalEdgeStyle;rounded=0;orthogonalLoop=1;jettySize=auto;html=1;shape=flexArrow;" edge="1" parent="1" source="B_HVdMrwZ7ZetZHbVxnH-12" target="B_HVdMrwZ7ZetZHbVxnH-11">
          <mxGeometry relative="1" as="geometry" />
        </mxCell>
        <mxCell id="B_HVdMrwZ7ZetZHbVxnH-19" style="edgeStyle=orthogonalEdgeStyle;rounded=0;orthogonalLoop=1;jettySize=auto;html=1;exitX=0.5;exitY=1;exitDx=0;exitDy=0;shape=flexArrow;" edge="1" parent="1" source="B_HVdMrwZ7ZetZHbVxnH-12" target="B_HVdMrwZ7ZetZHbVxnH-13">
          <mxGeometry relative="1" as="geometry" />
        </mxCell>
        <mxCell id="B_HVdMrwZ7ZetZHbVxnH-12" value="解析器" style="rounded=0;whiteSpace=wrap;html=1;fillColor=#e1d5e7;strokeColor=#9673a6;" vertex="1" parent="1">
          <mxGeometry x="474" y="320" width="96" height="50" as="geometry" />
        </mxCell>
        <mxCell id="B_HVdMrwZ7ZetZHbVxnH-13" value="优化器" style="rounded=0;whiteSpace=wrap;html=1;fillColor=#d5e8d4;strokeColor=#82b366;" vertex="1" parent="1">
          <mxGeometry x="474" y="420" width="96" height="50" as="geometry" />
        </mxCell>
        <mxCell id="B_HVdMrwZ7ZetZHbVxnH-14" value="" style="shape=flexArrow;endArrow=classic;html=1;rounded=0;" edge="1" parent="1" target="B_HVdMrwZ7ZetZHbVxnH-11">
          <mxGeometry width="50" height="50" relative="1" as="geometry">
            <mxPoint x="378" y="260" as="sourcePoint" />
            <mxPoint x="450" y="260" as="targetPoint" />
          </mxGeometry>
        </mxCell>
        <mxCell id="B_HVdMrwZ7ZetZHbVxnH-16" value="" style="shape=flexArrow;endArrow=classic;html=1;rounded=0;" edge="1" parent="1">
          <mxGeometry width="50" height="50" relative="1" as="geometry">
            <mxPoint x="521.58" y="260" as="sourcePoint" />
            <mxPoint x="521.58" y="320" as="targetPoint" />
          </mxGeometry>
        </mxCell>
        <mxCell id="B_HVdMrwZ7ZetZHbVxnH-20" value="存储引擎" style="rounded=0;whiteSpace=wrap;html=1;fillColor=#b1ddf0;strokeColor=#10739e;" vertex="1" parent="1">
          <mxGeometry x="255" y="585" width="380" height="40" as="geometry" />
        </mxCell>
        <mxCell id="B_HVdMrwZ7ZetZHbVxnH-22" style="edgeStyle=orthogonalEdgeStyle;rounded=0;orthogonalLoop=1;jettySize=auto;html=1;exitX=0;exitY=1;exitDx=0;exitDy=0;entryX=0.395;entryY=-0.012;entryDx=0;entryDy=0;entryPerimeter=0;" edge="1" parent="1" source="B_HVdMrwZ7ZetZHbVxnH-5" target="B_HVdMrwZ7ZetZHbVxnH-7">
          <mxGeometry relative="1" as="geometry" />
        </mxCell>
        <mxCell id="B_HVdMrwZ7ZetZHbVxnH-26" style="edgeStyle=orthogonalEdgeStyle;rounded=0;orthogonalLoop=1;jettySize=auto;html=1;exitX=1;exitY=1;exitDx=0;exitDy=0;entryX=0.636;entryY=-0.01;entryDx=0;entryDy=0;entryPerimeter=0;" edge="1" parent="1" source="B_HVdMrwZ7ZetZHbVxnH-5" target="B_HVdMrwZ7ZetZHbVxnH-7">
          <mxGeometry relative="1" as="geometry" />
        </mxCell>
        <mxCell id="B_HVdMrwZ7ZetZHbVxnH-28" value="" style="endArrow=classic;startArrow=classic;html=1;rounded=0;" edge="1" parent="1">
          <mxGeometry width="50" height="50" relative="1" as="geometry">
            <mxPoint x="370" y="587" as="sourcePoint" />
            <mxPoint x="370" y="520" as="targetPoint" />
          </mxGeometry>
        </mxCell>
        <mxCell id="B_HVdMrwZ7ZetZHbVxnH-29" value="" style="endArrow=classic;startArrow=classic;html=1;rounded=0;" edge="1" parent="1">
          <mxGeometry width="50" height="50" relative="1" as="geometry">
            <mxPoint x="449.58" y="587" as="sourcePoint" />
            <mxPoint x="449.58" y="520" as="targetPoint" />
          </mxGeometry>
        </mxCell>
        <mxCell id="B_HVdMrwZ7ZetZHbVxnH-30" value="" style="endArrow=classic;startArrow=classic;html=1;rounded=0;" edge="1" parent="1">
          <mxGeometry width="50" height="50" relative="1" as="geometry">
            <mxPoint x="540" y="585" as="sourcePoint" />
            <mxPoint x="540" y="518" as="targetPoint" />
          </mxGeometry>
        </mxCell>
      </root>
    </mxGraphModel>
  </diagram>
</mxfile>
